<mxfile host="65bd71144e">
    <diagram id="zVKggLRgk9ZvnvhXLBjB" name="Page-1">
        <mxGraphModel dx="1130" dy="546" grid="1" gridSize="10" guides="1" tooltips="1" connect="1" arrows="1" fold="1" page="1" pageScale="1" pageWidth="850" pageHeight="1100" math="0" shadow="0">
            <root>
                <mxCell id="0"/>
                <mxCell id="1" parent="0"/>
                <mxCell id="24" value="" style="strokeWidth=2;html=1;shape=mxgraph.flowchart.annotation_1;align=left;pointerEvents=1;rotation=90;" vertex="1" parent="1">
                    <mxGeometry x="341.88" y="256.88" width="50" height="396.25" as="geometry"/>
                </mxCell>
                <mxCell id="16" value="นักศึกษา" style="whiteSpace=wrap;html=1;align=center;" vertex="1" parent="1">
                    <mxGeometry x="110" y="480" width="100" height="40" as="geometry"/>
                </mxCell>
                <mxCell id="17" value="0" style="swimlane;fontStyle=0;childLayout=stackLayout;horizontal=1;startSize=26;horizontalStack=0;resizeParent=1;resizeParentMax=0;resizeLast=0;collapsible=1;marginBottom=0;align=center;fontSize=14;" vertex="1" parent="1">
                    <mxGeometry x="520" y="480" width="160" height="80" as="geometry"/>
                </mxCell>
                <mxCell id="18" value="&amp;nbsp;ระบบตรวจสอบการตั้งค่าเครือข่ายของวิชาปฏิบัติการวิศวกรรมเครือข่าย 2" style="text;strokeColor=none;fillColor=none;spacingLeft=4;spacingRight=4;overflow=hidden;rotatable=0;points=[[0,0.5],[1,0.5]];portConstraint=eastwest;fontSize=12;whiteSpace=wrap;html=1;" vertex="1" parent="17">
                    <mxGeometry y="26" width="160" height="54" as="geometry"/>
                </mxCell>
                <mxCell id="21" value="" style="strokeWidth=2;html=1;shape=mxgraph.flowchart.annotation_1;align=left;pointerEvents=1;rotation=90;" vertex="1" parent="1">
                    <mxGeometry x="360" y="300" width="20" height="340" as="geometry"/>
                </mxCell>
                <mxCell id="23" value="ตรวจสอบการตั้งค่าอุปรณ์เครือข่าย" style="text;html=1;align=center;verticalAlign=middle;whiteSpace=wrap;rounded=0;" vertex="1" parent="1">
                    <mxGeometry x="260" y="430" width="220" height="30" as="geometry"/>
                </mxCell>
                <mxCell id="25" value="ตรวจสอบคะแนนแบบฝึกหัด" style="text;html=1;align=center;verticalAlign=middle;whiteSpace=wrap;rounded=0;" vertex="1" parent="1">
                    <mxGeometry x="260" y="400" width="220" height="30" as="geometry"/>
                </mxCell>
            </root>
        </mxGraphModel>
    </diagram>
</mxfile>